<svg xmlns="http://www.w3.org/2000/svg" viewBox="-0.5 -0.5 12 12" fill="none" stroke="#000000" stroke-linecap="round" stroke-linejoin="round" id="Photo--Streamline-Tabler" height="12" width="12">
  <desc>
    Photo Streamline Icon: https://streamlinehq.com
  </desc>
  <path d="M6.875 3.6666666666666665h0.004583333333333333" stroke-width="1"></path>
  <path d="M1.375 2.75a1.375 1.375 0 0 1 1.375 -1.375h5.5a1.375 1.375 0 0 1 1.375 1.375v5.5a1.375 1.375 0 0 1 -1.375 1.375H2.75a1.375 1.375 0 0 1 -1.375 -1.375V2.75z" stroke-width="1"></path>
  <path d="m1.375 7.333333333333333 2.2916666666666665 -2.2916666666666665c0.42533333333333334 -0.40929166666666666 0.9496666666666667 -0.40929166666666666 1.375 0l2.2916666666666665 2.2916666666666665" stroke-width="1"></path>
  <path d="m6.416666666666666 6.416666666666666 0.4583333333333333 -0.4583333333333333c0.42533333333333334 -0.40929166666666666 0.9496666666666667 -0.40929166666666666 1.375 0l1.375 1.375" stroke-width="1"></path>
</svg>