<svg xmlns="http://www.w3.org/2000/svg" viewBox="-0.5 -0.5 12 12" fill="none" stroke="#000000" stroke-linecap="round" stroke-linejoin="round" id="Report--Streamline-Tabler" height="12" width="12">
  <desc>
    Report Streamline Icon: https://streamlinehq.com
  </desc>
  <path d="M3.6666666666666665 2.2916666666666665H2.75a0.9166666666666666 0.9166666666666666 0 0 0 -0.9166666666666666 0.9166666666666666v5.5a0.9166666666666666 0.9166666666666666 0 0 0 0.9166666666666666 0.9166666666666666h2.611125" stroke-width="1"></path>
  <path d="M8.25 6.416666666666666v1.8333333333333333h1.8333333333333333" stroke-width="1"></path>
  <path d="M8.25 5.041666666666666V3.208333333333333a0.9166666666666666 0.9166666666666666 0 0 0 -0.9166666666666666 -0.9166666666666666h-0.9166666666666666" stroke-width="1"></path>
  <path d="M3.6666666666666665 2.2916666666666665a0.9166666666666666 0.9166666666666666 0 0 1 0.9166666666666666 -0.9166666666666666h0.9166666666666666a0.9166666666666666 0.9166666666666666 0 0 1 0.9166666666666666 0.9166666666666666v0a0.9166666666666666 0.9166666666666666 0 0 1 -0.9166666666666666 0.9166666666666666h-0.9166666666666666a0.9166666666666666 0.9166666666666666 0 0 1 -0.9166666666666666 -0.9166666666666666z" stroke-width="1"></path>
  <path d="M6.416666666666666 8.25a1.8333333333333333 1.8333333333333333 0 1 0 3.6666666666666665 0 1.8333333333333333 1.8333333333333333 0 1 0 -3.6666666666666665 0" stroke-width="1"></path>
  <path d="M3.6666666666666665 5.041666666666666h1.8333333333333333" stroke-width="1"></path>
  <path d="M3.6666666666666665 6.875h1.375" stroke-width="1"></path>
</svg>